<svg width="4" height="8" viewBox="0 0 12 8" fill="none" xmlns="http://www.w3.org/2000/svg">
<path d="M1.18461 2.15213C1.12613 2.08978 1.0797 2.0155 1.04801 1.9336C1.01632 1.8517 1 1.76381 1 1.67503C1 1.58626 1.01632 1.49837 1.04801 1.41646C1.0797 1.33456 1.12613 1.26028 1.18461 1.19794C1.30345 1.07111 1.46373 1 1.63074 1C1.79775 1 1.95803 1.07111 2.07687 1.19794L6 5.37782L9.92313 1.19794C10.042 1.07112 10.2023 1 10.3693 1C10.5363 1 10.6965 1.07112 10.8154 1.19794C10.8739 1.26028 10.9203 1.33456 10.952 1.41646C10.9837 1.49837 11 1.58626 11 1.67503C11 1.76381 10.9837 1.8517 10.952 1.9336C10.9203 2.0155 10.8739 2.08978 10.8154 2.15213L6.44613 6.8074C6.32577 6.93105 6.16606 7 6 7C5.83394 7 5.67423 6.93105 5.55387 6.8074L1.18461 2.15213Z" fill="white" stroke="white" stroke-width="0.281429"/>
</svg>
