<svg width="13" height="13" viewBox="0 0 13 13" fill="none" xmlns="http://www.w3.org/2000/svg">
<path d="M6.5 0C2.91569 0 0 2.91569 0 6.5C0 10.0843 2.91569 13 6.5 13C10.0843 13 13 10.0843 13 6.5C13 2.91569 10.0843 0 6.5 0ZM6.5 1.08333C9.49821 1.08333 11.9167 3.50179 11.9167 6.5C11.9167 9.49821 9.49821 11.9167 6.5 11.9167C3.50179 11.9167 1.08333 9.49821 1.08333 6.5C1.08333 4.72689 1.93815 3.17171 3.25 2.18359L3.63932 2.47135L6.5 4.48568V1.08333ZM3.01302 3.35156L2.40365 4.23177L6.1276 6.8724L6.34766 7.04167L6.61849 6.9401L9.39453 5.92448L9.02214 4.90885L6.5 5.82292L3.01302 3.35156Z" fill="#FFF200"/>
</svg>
