<svg width="146" height="227" viewBox="0 0 146 227" fill="none" xmlns="http://www.w3.org/2000/svg">
<g clip-path="url(#clip0_438_3227)">
<path opacity="0.5" d="M3.66922 72.5462C3.66922 110.904 34.8724 142.107 73.23 142.107C111.588 142.107 142.791 110.904 142.791 72.5462C142.791 34.1887 111.588 2.97791 73.23 2.97791C34.8724 2.98544 3.66922 34.1887 3.66922 72.5462Z" fill="black"/>
<path d="M42.5168 106.358C42.5168 106.358 44.3111 107.579 45.3816 108.815C47.2889 111.024 48.3217 112.562 49.7993 116.679L54.0814 110.994L50.6361 111.364C49.6636 109.569 49.0454 108.529 47.5754 107.104C46.3088 105.875 45.5399 105.114 44.1 104.111C39.9536 100.847 30.8015 98.1028 27.9443 101.978C24.4839 106.682 29.746 113.814 34.5332 116.988C36.1917 118.103 36.9607 118.661 38.6343 119.506C40.2853 120.335 41.2578 120.734 43.0144 121.292L44.59 124.564L47.6055 120.569L53.7648 120.893L39.2977 109.992L42.0117 116.317L41.2955 117.267C40.2702 117.048 39.6898 116.859 38.7323 116.415C37.6543 115.91 36.154 114.779 36.154 114.779C33.8019 113.007 33.3194 109.682 35.0684 107.361C36.8401 105.031 40.1647 104.579 42.5168 106.358Z" fill="#FFF200"/>
<path d="M32.4902 56.7372C32.6862 54.8977 32.7088 53.8498 32.6032 52.0028L35.1061 49.3642L30.2964 47.9696L28.4117 42.0968L23.3606 59.4964L28.3061 54.7093L29.4445 55.041C29.6028 56.0813 29.6329 56.6844 29.5576 57.7399C29.4671 58.931 28.9394 60.7328 28.9394 60.7328C28.1176 63.5599 25.185 65.1882 22.3881 64.3816C19.5912 63.5674 17.9855 60.6197 18.8072 57.7927C18.8072 57.7927 19.3123 55.6818 20.0888 54.2419C21.4759 51.6787 22.5464 50.1634 25.8711 47.3212L19.0334 45.331L20.6014 48.4219C19.2671 49.9673 18.5132 50.9172 17.7065 52.7944C17.0129 54.4152 16.5682 55.4028 16.146 57.1066C14.5704 62.1426 15.2564 71.6716 19.8928 72.9608C25.5167 74.5289 30.319 67.0729 31.578 61.4716C32.0454 59.519 32.2942 58.5993 32.4902 56.7372Z" fill="#FFF200"/>
<path d="M57.9488 28.4742H86.7999V20.7243L80.9347 25.3004H71.2473V16.9021L77.4367 13.291H58.5368L63.6029 16.9021V24.5465L57.9488 28.4742Z" fill="#FFF200"/>
<path d="M118.636 55.32C118.893 57.8606 119.586 60.2956 120.385 63.3112C120.808 64.9018 122.044 67.0579 120.468 67.5254C119.616 67.7817 118.742 65.7688 118.131 64.0349C117.581 62.4894 115.568 54.8149 117.898 49.7488L111.376 51.7014C112.56 52.5005 113.216 53.4654 113.736 54.5058C114.09 55.2144 114.173 55.6366 114.271 56.398C114.49 58.049 114.58 62.0069 115.606 64.9622C117.076 69.199 119.616 74.1218 123.853 72.9759C126.763 72.1844 127.08 67.3444 126.56 64.9395C125.874 61.7657 125.745 60.2655 124.682 56.1417C124.328 54.7697 123.876 52.7869 124.803 52.508C125.708 52.2366 126.733 54.6264 126.974 55.5386C128.248 60.273 128.738 64.3364 127.314 68.8673L133.111 67.1258L130.827 63.8238C130.706 60.2353 130.306 57.5741 129.605 55.4255C128.241 51.249 125.255 46.2508 121.441 47.6756C118.463 48.7914 118.32 52.1688 118.636 55.32Z" fill="#FFF200"/>
<path d="M118.523 35.4551C117.498 32.7185 116.277 31.3842 113.842 29.605L107.675 24.9309L98.1006 17.671L99.7516 23.5136L94.972 29.8161L88.4132 29.3713L98.7489 37.2117L104.667 41.6973C105.504 42.2702 106.009 42.5567 106.921 43.0015C108.655 43.8458 109.703 44.4188 111.625 44.5469C114.294 44.7279 116.518 44.7128 118.207 42.6396C119.986 40.4684 119.375 37.7168 118.523 35.4551ZM111.286 37.0835C110.216 38.546 108.761 39.1039 106.974 38.8099C105.835 38.6214 105.376 38.0786 104.38 37.3926L100.649 34.7766L106.077 27.5695L109.552 30.2382C110.532 30.9469 111.128 31.354 111.633 32.417C112.409 34.0604 112.372 35.6134 111.286 37.0835Z" fill="#FFF200"/>
<path d="M123.778 37.5811L120.189 44.939L128.158 43.1824L123.778 37.5811Z" fill="#FFF200"/>
<path d="M115.591 96.6855L116.45 91.0012L106.416 100.364L108.881 107.481L102.443 104.066L90.8181 114.907L96.9321 114.025L102.262 119.739L100.965 125.408L112.96 114.213L107.486 114.794L101.802 108.695L113.42 113.791L116.103 111.288L112.1 99.0225L117.86 105.189L116.676 110.753L126.861 101.254L120.921 102.407L115.591 96.6855Z" fill="#FFF200"/>
<path d="M78.5599 118.013L74.6774 122.453L70.4632 118.631L74.2854 115.48H56.1847L61.5825 118.571L69.0535 125.544V127.286L63.0978 131.334H82.94L76.7054 127.286V125.544L83.6713 118.458L88.7298 115.48H75.1825L78.5599 118.013Z" fill="#FFF200"/>
<path d="M37.7297 24.9686C33.0556 28.3083 28.0347 35.5606 31.6609 40.1367C34.6538 43.9137 44.1678 40.6493 48.2011 37.2418C52.3701 34.0076 56.9084 25.8883 53.8326 22.1792C50.1084 17.6861 41.9665 21.0861 37.7297 24.9686ZM45.8867 35.2666C43.6024 37.1212 40.2552 36.7819 38.4232 34.5203C36.5913 32.2586 37.0889 29.0848 39.3807 27.2302C41.6649 25.3757 44.8765 25.5491 46.7084 27.8107C48.5479 30.0799 48.1785 33.4196 45.8867 35.2666Z" fill="#FFF200"/>
<path d="M0.683838 72.5462C0.683838 112.547 33.229 145.092 73.23 145.092C113.231 145.092 145.776 112.547 145.776 72.5462C145.776 32.5451 113.231 0 73.23 0C33.229 0 0.683838 32.5451 0.683838 72.5462ZM6.86568 72.5462C6.86568 35.9527 36.6365 6.18184 73.23 6.18184C109.823 6.18184 139.594 35.9527 139.594 72.5537C139.594 109.147 109.823 138.926 73.23 138.926C36.6365 138.926 6.86568 109.147 6.86568 72.5462Z" fill="#FFF200"/>
<path d="M36.1691 72.5386C36.1691 92.999 52.8148 109.645 73.2752 109.645C93.7356 109.645 110.381 92.999 110.381 72.5386C110.381 52.0782 93.7356 35.4325 73.2752 35.4325C52.8148 35.4325 36.1691 52.0782 36.1691 72.5386ZM42.3509 72.5386C42.3509 55.4858 56.2224 41.6143 73.2752 41.6143C90.3281 41.6143 104.2 55.4858 104.2 72.5386C104.2 89.5915 90.3281 103.463 73.2752 103.463C56.2224 103.463 42.3509 89.5915 42.3509 72.5386Z" fill="#FFF200"/>
<path d="M129.877 95.9014C130.028 96.5498 129.922 97.1604 129.56 97.7107C129.206 98.2762 128.708 98.6305 128.045 98.7813C127.412 98.9169 126.808 98.8114 126.243 98.4571C125.685 98.0952 125.338 97.6052 125.188 96.9644C125.044 96.3236 125.15 95.7205 125.504 95.1551C125.866 94.5972 126.364 94.2353 127.004 94.0921C127.653 93.9413 128.241 94.0469 128.806 94.4012C129.372 94.7555 129.726 95.2606 129.877 95.9014ZM125.512 96.889C125.632 97.4469 125.941 97.8917 126.431 98.1706C126.914 98.4872 127.427 98.5777 128 98.4571C128.542 98.3214 128.972 98.0198 129.289 97.5373C129.598 97.0473 129.688 96.5271 129.56 95.9693C129.432 95.4039 129.123 94.9741 128.64 94.6726C128.158 94.3635 127.645 94.273 127.087 94.4087C126.529 94.5369 126.092 94.8384 125.791 95.3285C125.474 95.811 125.391 96.3311 125.512 96.889ZM126.386 95.7657C126.56 95.4943 126.718 95.3059 126.854 95.2079C127.087 95.042 127.359 95.042 127.63 95.2229C127.856 95.3435 127.924 95.5094 127.932 95.713C127.932 95.8185 127.924 95.9542 127.841 96.105C127.962 95.9467 128.12 95.8713 128.294 95.8637C128.459 95.8487 128.61 95.8863 128.716 95.9617L128.882 96.0597C128.934 96.0899 128.98 96.1276 129.047 96.1653C129.108 96.1879 129.153 96.2105 129.176 96.2105H129.213L128.98 96.5875C128.965 96.5875 128.965 96.5799 128.949 96.5799C128.942 96.5724 128.934 96.5724 128.927 96.5648L128.851 96.5271L128.678 96.4216C128.414 96.2633 128.211 96.2256 128.007 96.3085C127.954 96.3613 127.826 96.4894 127.69 96.693L127.487 97.0096L128.354 97.56L128.105 97.9218L125.889 96.5422L126.386 95.7657ZM127.012 95.5773C126.891 95.6376 126.763 95.7808 126.627 95.9994L126.409 96.3387L127.208 96.8362L127.427 96.4819C127.54 96.3161 127.6 96.1804 127.623 96.0824C127.66 95.8863 127.592 95.7431 127.427 95.63C127.268 95.5245 127.125 95.5094 127.012 95.5773Z" fill="#FFF200"/>
<path d="M90.1622 77.65C89.9511 77.4314 89.6797 77.3409 89.4762 77.1298L90.0491 76.2629C90.0491 76.2629 90.0717 76.2402 90.0717 76.1724C90.0717 76.1121 90.0491 76.0744 90.0491 76.0744C89.8757 75.901 89.6797 75.6974 89.4158 75.6899C89.2198 75.7201 89.1445 75.9387 89.0088 76.0593H88.9409C88.9032 76.0291 88.8731 75.9915 88.8806 75.9462L89.5968 74.8908C89.5968 74.8908 89.6269 74.8531 89.6269 74.8003C89.6269 74.7475 89.5968 74.7174 89.5968 74.7174C89.4083 74.4912 89.1294 74.2801 88.8278 74.3329C88.6695 74.4309 88.5866 74.6948 88.466 74.6948C88.3906 74.6571 88.4132 74.642 88.4056 74.5968L89.0389 73.662C89.0992 73.5413 89.1068 73.3981 88.9937 73.3076C88.7826 73.1493 88.5564 72.8855 88.285 73.0815C88.1719 73.1795 88.1192 73.3453 87.9759 73.383C87.9458 73.3755 87.9005 73.3378 87.893 73.3076L88.3529 72.6216C88.4509 72.4633 88.6017 72.3125 88.5413 72.109C88.4735 71.9431 88.285 71.8828 88.1569 71.7848C88.0362 71.732 87.9005 71.7697 87.8025 71.8526C87.1165 72.7498 86.5059 73.7147 85.8349 74.6194L84.8322 74.0163C84.8322 74.0163 84.8624 73.9258 84.8624 73.7901C84.8549 73.7072 84.8549 73.6544 84.8322 73.5715C84.8096 73.3679 84.101 72.5387 83.9125 71.928C84.0708 71.2118 84.4101 70.571 84.6739 69.8925C85.0961 68.8296 85.2544 67.4876 84.8473 66.3644C85.1564 65.5954 84.591 65.0149 84.5005 64.3289C84.5684 63.4544 84.5985 62.6326 84.1914 61.826C84.1236 60.6273 83.8974 59.4362 83.038 58.5617C83.0078 57.7098 82.8722 56.8881 82.3294 56.2397C81.4398 55.1767 80.0375 54.8224 78.6956 55.1617C78.183 54.5058 77.5347 53.8424 76.7431 53.6011C76.4792 53.5031 76.1852 53.4805 75.9289 53.3599C75.5821 52.6512 75.846 51.7993 75.4992 51.0982C75.5519 50.9625 75.5821 50.8193 75.5821 50.6685C75.9892 50.4273 76.3737 49.6055 76.2304 48.9572C76.14 48.7838 76.0872 48.7838 75.9666 48.7687C76.0269 47.8867 76.0721 46.8162 75.6575 46.0774C75.4539 45.723 75.1825 45.414 74.8282 45.2029C73.8708 44.645 72.3329 44.6224 71.3981 45.2255C70.124 45.9417 70.0335 47.457 70.2295 48.7838C70.1391 48.814 70.0863 48.7763 69.9808 48.912C69.8903 49.1984 69.9204 50.4574 70.6442 50.6685L70.7949 51.1058C70.3878 51.7993 70.7799 52.7191 70.3803 53.3976C69.7395 53.5936 69.0384 53.8047 68.5107 54.2872C68.1262 54.551 67.8623 54.9506 67.6362 55.3049C66.6863 55.0184 65.6007 55.2144 64.8091 55.7045C63.7612 56.3453 63.2637 57.4535 63.3692 58.6371C62.5173 59.5191 62.1554 60.6122 62.2007 61.8411C61.6051 62.9644 62.2082 63.9218 62.0197 64.359C62.0197 64.359 61.3789 65.9723 61.6503 66.3417C61.3714 67.367 61.4694 68.9125 61.8313 69.9001C62.0725 70.6238 62.4193 71.3098 62.6832 72.026C62.4344 72.5537 62.0951 73.0513 61.7785 73.5564C61.7484 73.6016 61.6956 73.677 61.6805 73.7901C61.6579 73.9107 61.7182 74.1746 61.7182 74.1746L60.6703 74.7777H60.6025L58.582 71.9205L58.484 71.8526C58.3106 71.7923 58.1825 71.8979 58.0543 71.9883C57.9035 72.1014 57.7075 72.2522 57.7905 72.4633L58.386 73.3302C58.4011 73.3755 58.4237 73.4509 58.3559 73.481C58.1749 73.4509 58.1222 73.1569 57.8885 73.1795C57.6548 73.2775 57.3004 73.4207 57.2929 73.7298C57.4135 74.1143 57.7452 74.4083 57.896 74.7702C57.9035 74.8305 57.8206 74.8531 57.7754 74.8229C57.6397 74.7099 57.5718 74.4912 57.3683 74.5063C57.1723 74.5591 56.9838 74.6948 56.8632 74.8606C56.8104 75.313 57.2251 75.607 57.4135 75.9839C57.4512 76.0216 57.4512 76.1196 57.4135 76.1573C57.1647 76.2025 57.1723 75.7954 56.916 75.8633C56.7199 75.9915 56.4033 76.0819 56.3807 76.3533C56.4787 76.7303 56.7803 77.0167 56.9612 77.356C56.7576 77.5218 56.5315 77.6651 56.343 77.8535C56.3053 77.9742 56.3882 78.0496 56.441 78.1476C56.6973 78.6451 57.0743 78.0043 57.3834 77.9742C57.6397 78.2606 57.7678 78.6979 58.1373 78.8487C58.3483 78.8034 58.4991 78.6376 58.6725 78.517C58.9062 78.3285 58.6197 78.1249 58.5745 77.9139C58.6047 77.8762 58.6499 77.846 58.6951 77.8762L59.2982 78.7281L59.4641 78.8411C59.6601 78.8788 59.8033 78.728 59.9616 78.6376C60.0898 78.5622 60.218 78.4114 60.1426 78.2531C60.12 78.1249 59.9013 78.0194 60.022 77.8762C60.0521 77.8837 60.0898 77.8686 60.1124 77.8912L60.7457 78.7808L60.8663 78.8562C61.1679 78.8713 61.4242 78.6376 61.6353 78.419C61.7107 78.2154 61.5146 78.0948 61.4468 77.944C61.477 77.8611 61.5674 77.8686 61.6127 77.9289C61.8388 78.238 62.0273 78.5773 62.3138 78.8487C62.5852 79.0145 62.8189 78.7205 63.0224 78.5547C63.0601 78.4491 63.0601 78.3436 63.0224 78.238L61.0171 75.3431L61.9067 74.8154C61.9067 74.8154 62.1781 75.1622 62.3439 75.215C62.6078 75.2979 63.03 75.0793 63.0526 75.0039C63.128 75.0642 63.3164 75.1923 63.5577 75.1471C63.8894 75.0868 63.9045 75.0039 64.0025 74.8757C64.0025 74.8757 64.2588 74.9662 64.4473 74.9511C64.5453 74.936 64.794 74.8832 64.8543 74.5892C64.8543 74.5892 65.1559 74.6872 65.3594 74.4988C65.661 74.2198 65.465 73.7449 65.4198 73.383C66.0606 73.1795 66.7089 72.9759 67.3723 72.8779C67.1612 73.8504 66.92 74.8229 66.8446 75.8558C66.6561 79.1351 67.1838 82.1959 69.6566 84.3972C69.8375 84.8873 69.8978 85.4376 70.026 85.9578C69.5812 86.7117 69.2193 87.5032 68.9781 88.3401C68.179 91.3405 69.7621 93.9037 70.9382 96.3614L71.006 96.6931C71.006 96.6931 70.8402 96.7986 70.7422 96.9343C70.6668 97.0399 70.6442 97.5374 70.5311 97.8164C70.2446 98.2687 69.6264 98.8793 69.3324 99.49C68.6765 99.7463 68.1413 100.025 68.179 100.455H68.6313C68.6388 100.432 73.1998 100.44 73.1998 100.44C73.1395 100.161 73.0717 99.8895 72.951 99.6332C73.0717 99.0301 73.1546 98.427 73.0868 97.7711C72.7927 96.9042 72.8832 95.8789 72.9209 94.9365L73.3205 91.1671C73.4486 92.396 73.6823 93.5946 73.8256 94.8235C73.9085 95.9618 73.7803 97.3339 73.6597 97.741C73.5768 98.3893 73.5692 99.0452 73.7652 99.6634C73.6672 99.9197 73.5768 100.153 73.5315 100.447H78.1227H78.575C78.6052 99.8066 77.8664 99.7086 77.4593 99.4674C77.218 98.9095 76.7355 98.4421 76.2908 97.9747C76.1098 97.6731 76.0344 97.07 75.9892 96.972C75.9515 96.8816 75.6726 96.678 75.6726 96.678L75.7404 96.4368C76.4868 94.8536 77.2482 93.4438 77.693 91.7401C78.1981 89.7574 77.6402 87.6239 76.6602 86.003C76.7355 85.4451 76.826 84.9702 76.9843 84.4425C77.399 84.0806 77.7684 83.6358 78.1001 83.1986C80.0149 80.7183 80.0225 77.0695 79.4948 73.971C79.442 73.579 79.2837 73.2096 79.246 72.8327C79.9094 73.0061 80.5879 73.1569 81.2061 73.4132C81.1608 73.6695 81.1458 73.8203 81.1458 74.0992C81.1533 74.2048 81.1985 74.4837 81.3945 74.5666C81.7262 74.7249 82.0429 74.6495 82.0429 74.6495C82.0429 74.6495 82.1409 74.8456 82.4575 74.9059C82.7741 74.9737 82.8721 74.8606 82.8721 74.8606C82.8721 74.8606 82.9174 75.0642 83.1586 75.1094C83.3999 75.1471 83.6637 75.2376 83.8522 74.9737C83.9125 75.1019 84.3196 75.2677 84.4704 75.0793C84.6212 74.8908 84.6513 74.7475 84.6513 74.7475L85.4429 75.215L85.458 75.2602L83.6788 77.8309L83.5054 78.14C83.4828 78.2456 83.4753 78.3813 83.5733 78.4642C83.7843 78.5622 83.9804 78.8411 84.2291 78.7281L84.9152 77.7782C84.9529 77.748 85.0056 77.7857 85.0358 77.8158C85.0207 77.9968 84.787 78.1928 84.983 78.3662C85.1866 78.4943 85.3977 78.7205 85.6691 78.63L86.3325 77.7254L86.4003 77.748C86.5511 77.8686 86.2345 78.0646 86.2872 78.2606L86.8376 78.615C86.913 78.6677 87.0185 78.6376 87.0939 78.5924L87.6744 77.7932L87.7799 77.7405C87.9986 77.8912 87.6744 78.0496 87.7422 78.2305C87.9005 78.4265 88.1267 78.615 88.3981 78.63C88.7223 78.3813 88.8806 77.9892 89.1369 77.6877C89.4159 77.8234 89.6345 78.0948 89.9436 78.14C90.0567 78.0797 90.23 77.846 90.1622 77.65ZM68.6992 69.5985C68.5559 69.9905 68.5258 70.2619 68.5258 70.2619C68.0734 70.8349 67.802 71.4832 67.5457 72.1391C66.7768 72.32 66.0229 72.5236 65.2765 72.7573C65.1785 72.6291 64.7337 72.0336 64.3568 71.7622C64.2889 71.2646 64.2663 70.7293 64.2739 70.2167C64.3342 70.1187 64.4246 70.0358 64.4774 69.9378L64.4925 69.9152L64.6056 69.7041C65.2464 68.5129 65.3368 66.6885 64.4925 65.5577C64.6056 65.324 64.7865 65.1129 64.9599 64.9094C65.5102 64.7209 66.0379 64.5023 66.5053 64.1329C66.8597 64.8641 67.4176 65.5653 68.081 66.1307C68.5031 67.0504 68.8047 68.0229 68.9027 69.0783C68.8801 69.116 68.7896 69.3422 68.6992 69.5985ZM81.975 71.7697C81.975 71.7697 81.4021 72.3351 81.2739 72.697C80.5351 72.4934 79.8114 72.2673 79.065 72.0939C78.8163 71.438 78.5373 70.7595 78.0624 70.2846C78.0624 70.2846 77.9719 69.9981 77.8437 69.6136C77.7382 69.3045 77.5874 69.0633 77.5874 69.0633C77.693 68.038 77.987 66.9298 78.4092 66.0402C79.0349 65.4295 79.5777 64.7661 79.9546 64.0424C80.422 64.457 80.9724 64.6681 81.5453 64.8189C81.7187 65.0074 81.8544 65.2109 81.9449 65.4371C81.5453 66.1834 81.2588 66.9825 81.3644 67.9098C81.3568 68.6863 81.7489 69.3045 82.1183 69.9227C82.156 69.983 82.2012 70.0207 82.2313 70.0659C82.3218 70.4806 81.975 71.7697 81.975 71.7697Z" fill="#FFF200"/>
<path d="M28.7509 226.67H28.0046C27.1074 226.67 26.4817 226.444 26.0294 226.082C25.6977 225.826 25.4564 225.494 25.268 225.132C25.2152 225.026 25.2303 224.944 25.3358 224.891L26.2329 224.423C26.3385 224.371 26.4214 224.408 26.4742 224.506C26.821 225.147 27.409 225.479 27.997 225.479H28.7434C29.6782 225.479 30.4547 224.732 30.4547 223.783C30.4547 222.622 29.3993 222.124 28.2383 221.604C26.9039 221.001 25.4037 220.322 25.4037 218.317C25.4037 216.658 26.6325 215.43 28.4644 215.43H28.7434C29.7611 215.43 30.4547 215.739 30.9221 216.191C31.1633 216.417 31.3367 216.673 31.495 216.952C31.5478 217.058 31.5101 217.141 31.4046 217.194L30.4848 217.646C30.4019 217.699 30.3265 217.661 30.2813 217.578C29.9194 216.952 29.3314 216.628 28.7434 216.628H28.4644C27.4241 216.628 26.7682 217.322 26.7682 218.324C26.7682 219.365 27.8915 219.832 29.1203 220.383C30.417 220.971 31.8041 221.747 31.8041 223.79C31.8192 225.479 30.6432 226.67 28.7509 226.67Z" fill="#FFF200"/>
<path d="M41.5594 226.497H40.4663C40.3758 226.497 40.3079 226.459 40.2929 226.376L39.637 224.039C39.6219 223.956 39.5465 223.933 39.4636 223.933H36.3501C36.2596 223.933 36.1917 223.948 36.1767 224.039L35.5208 226.376C35.5057 226.466 35.4303 226.497 35.3474 226.497H34.3447C34.1864 226.497 34.1412 226.406 34.1713 226.27L37.3904 215.716C37.4055 215.626 37.4809 215.595 37.5638 215.595H38.3629C38.4534 215.595 38.5212 215.633 38.5363 215.716L41.7403 226.27C41.7629 226.406 41.7177 226.497 41.5594 226.497ZM38.2046 218.679C38.0463 218.053 37.9634 217.435 37.9634 217.435H37.9106C37.9106 217.435 37.8201 218.038 37.6543 218.679L36.6139 222.516C36.5762 222.637 36.629 222.742 36.7873 222.742H39.0188C39.1771 222.742 39.2224 222.637 39.1922 222.516L38.2046 218.679Z" fill="#FFF200"/>
<path d="M51.3373 226.497H50.3647C50.312 226.497 50.2441 226.459 50.2064 226.406L46.2636 219.244C46.143 219.041 46.0073 218.671 45.9319 218.43H45.8791C45.9168 219.056 45.9319 220.82 45.9319 222.652V226.316C45.9319 226.436 45.8791 226.489 45.7585 226.489H44.7559C44.6352 226.489 44.5825 226.436 44.5825 226.316V215.761C44.5825 215.641 44.6352 215.588 44.7559 215.588H45.7057C45.7736 215.588 45.8264 215.626 45.8641 215.678L49.8069 222.893C49.8973 223.051 50.0481 223.413 50.116 223.639H50.1687C50.1537 222.931 50.131 220.85 50.131 219.485V215.769C50.131 215.648 50.1838 215.595 50.3044 215.595H51.3222C51.4428 215.595 51.4956 215.648 51.4956 215.769V226.323C51.5106 226.444 51.4579 226.497 51.3373 226.497Z" fill="#FFF200"/>
<path d="M62.9169 226.67H62.1706C61.2734 226.67 60.6477 226.444 60.1954 226.082C59.8637 225.826 59.6224 225.494 59.434 225.132C59.3812 225.026 59.3963 224.944 59.5018 224.891L60.3989 224.423C60.5045 224.371 60.5874 224.408 60.6402 224.506C60.987 225.147 61.575 225.479 62.163 225.479H62.9094C63.8442 225.479 64.6207 224.732 64.6207 223.783C64.6207 222.622 63.5652 222.124 62.4043 221.604C61.0699 221.001 59.5697 220.322 59.5697 218.317C59.5697 216.658 60.7985 215.43 62.6304 215.43H62.9094C63.9271 215.43 64.6207 215.739 65.0881 216.191C65.3293 216.417 65.5027 216.673 65.661 216.952C65.7138 217.058 65.6761 217.141 65.5706 217.194L64.6508 217.646C64.5679 217.699 64.4925 217.661 64.4473 217.578C64.0854 216.952 63.4974 216.628 62.9094 216.628H62.6304C61.5901 216.628 60.9342 217.322 60.9342 218.324C60.9342 219.365 62.0575 219.832 63.2863 220.383C64.583 220.971 65.9701 221.747 65.9701 223.79C65.9777 225.479 64.8016 226.67 62.9169 226.67Z" fill="#FFF200"/>
<path d="M74.0744 216.787H72.0313C71.9107 216.787 71.8579 216.839 71.8579 216.96V226.323C71.8579 226.444 71.8052 226.497 71.6846 226.497H70.6668C70.5462 226.497 70.4934 226.444 70.4934 226.323V216.96C70.4934 216.839 70.4406 216.787 70.32 216.787H68.277C68.1564 216.787 68.1036 216.734 68.1036 216.613V215.761C68.1036 215.641 68.1564 215.588 68.277 215.588H74.0744C74.195 215.588 74.2478 215.641 74.2478 215.761V216.613C74.2478 216.734 74.195 216.787 74.0744 216.787Z" fill="#FFF200"/>
<path d="M83.0079 226.497H77.2256C77.105 226.497 77.0522 226.444 77.0522 226.323V215.769C77.0522 215.648 77.105 215.595 77.2256 215.595H83.0079C83.1285 215.595 83.1813 215.648 83.1813 215.769V216.621C83.1813 216.741 83.1285 216.794 83.0079 216.794H78.575C78.4544 216.794 78.4016 216.847 78.4016 216.968V220.202C78.4016 220.322 78.4544 220.375 78.575 220.375H82.2087C82.3294 220.375 82.3821 220.428 82.3821 220.548V221.4C82.3821 221.521 82.3294 221.574 82.2087 221.574H78.575C78.4544 221.574 78.4016 221.627 78.4016 221.747V225.14C78.4016 225.26 78.4544 225.313 78.575 225.313H83.0079C83.1285 225.313 83.1813 225.366 83.1813 225.486V226.331C83.1813 226.444 83.1285 226.497 83.0079 226.497Z" fill="#FFF200"/>
<path d="M92.3636 216.787H87.9307C87.8101 216.787 87.7573 216.839 87.7573 216.96V220.194C87.7573 220.315 87.8101 220.368 87.9307 220.368H91.5645C91.6851 220.368 91.7379 220.42 91.7379 220.541V221.393C91.7379 221.513 91.6851 221.566 91.5645 221.566H87.9307C87.8101 221.566 87.7573 221.619 87.7573 221.74V226.323C87.7573 226.444 87.7046 226.497 87.584 226.497H86.5813C86.4607 226.497 86.4079 226.444 86.4079 226.323V215.769C86.4079 215.648 86.4607 215.595 86.5813 215.595H92.3636C92.4842 215.595 92.537 215.648 92.537 215.769V216.621C92.537 216.734 92.4917 216.787 92.3636 216.787Z" fill="#FFF200"/>
<path d="M100.882 226.497H99.7893C99.6988 226.497 99.631 226.459 99.6159 226.376L98.96 224.039C98.9449 223.956 98.8695 223.933 98.7866 223.933H95.6731C95.5826 223.933 95.5148 223.948 95.4997 224.039L94.8438 226.376C94.8287 226.466 94.7533 226.497 94.6704 226.497H93.6678C93.5094 226.497 93.4642 226.406 93.4944 226.27L96.7134 215.716C96.7285 215.626 96.8039 215.595 96.8868 215.595H97.6859C97.7764 215.595 97.8443 215.633 97.8593 215.716L101.063 226.27C101.086 226.406 101.033 226.497 100.882 226.497ZM97.5201 218.679C97.3618 218.053 97.2789 217.435 97.2789 217.435H97.2261C97.2261 217.435 97.1356 218.038 96.9698 218.679L95.9294 222.516C95.8917 222.637 95.9445 222.742 96.1028 222.742H98.3343C98.4926 222.742 98.5378 222.637 98.5077 222.516L97.5201 218.679Z" fill="#FFF200"/>
<path d="M110.66 226.497H109.695C109.643 226.497 109.575 226.459 109.537 226.406L105.594 219.244C105.474 219.041 105.338 218.671 105.262 218.43H105.21C105.247 219.056 105.262 220.82 105.262 222.652V226.316C105.262 226.436 105.21 226.489 105.089 226.489H104.086C103.966 226.489 103.913 226.436 103.913 226.316V215.761C103.913 215.641 103.966 215.588 104.086 215.588H105.036C105.104 215.588 105.157 215.626 105.195 215.678L109.137 222.893C109.228 223.051 109.379 223.413 109.447 223.639H109.499C109.484 222.931 109.462 220.85 109.462 219.485V215.769C109.462 215.648 109.514 215.595 109.635 215.595H110.653C110.773 215.595 110.826 215.648 110.826 215.769V226.323C110.834 226.444 110.781 226.497 110.66 226.497Z" fill="#FFF200"/>
<path d="M118.207 226.67H117.671C115.802 226.67 114.611 225.494 114.611 223.783V218.317C114.611 216.621 115.802 215.43 117.671 215.43H118.207C120.076 215.43 121.267 216.606 121.267 218.317V223.783C121.267 225.479 120.069 226.67 118.207 226.67ZM119.895 218.309C119.895 217.375 119.134 216.613 118.199 216.613H117.664C116.729 216.613 115.968 217.359 115.968 218.309V223.775C115.968 224.695 116.714 225.471 117.664 225.471H118.199C119.111 225.471 119.895 224.71 119.895 223.775V218.309Z" fill="#FFF200"/>
<path d="M122.941 176.793C121.644 176.823 113.691 179.356 103.023 188.614C103.023 188.614 101.357 190.197 100.603 186.737C100.483 183.917 103.061 180.728 103.061 180.728C103.061 180.728 106.476 184.166 109.507 182.033C112.53 179.899 116.081 176.959 117.521 173.333C118.961 169.707 115.794 167.86 114.407 167.309C113.02 166.759 110.834 167.543 110.6 167.739C110.366 167.943 101.923 173.393 97.5126 181.61C97.5126 181.61 92.4917 183.714 88.5187 186.88C88.5187 186.88 89.642 180.48 94.5724 174.026C94.5724 174.026 102.074 173.22 102.812 170.913C103.544 168.606 101.199 169.028 100.965 169.066C100.732 169.103 99.8873 169.533 96.4647 170.717L101.689 163.299C101.689 163.299 102.262 161.798 100.882 161.798C99.4953 161.798 93.4491 165.892 93.0948 166.578C92.7556 167.272 92.9817 168.425 92.9817 168.425C92.9817 168.425 90.1924 172.639 90.0793 172.978C89.9662 173.325 85.8123 174.019 83.8522 174.976C83.8522 174.976 82.8948 175.519 83.5054 176.386C83.8522 177.215 86.7547 176.439 88.0438 175.692L88.4434 175.504C88.3303 175.738 84.7343 183.186 84.4704 183.978C84.4704 183.978 81.6283 184.664 75.8611 188.629C75.8611 188.629 77.1879 183.307 80.7613 177.939C80.7613 177.939 83.2416 174.592 79.7812 172.926C76.6828 171.961 76.8109 178.655 70.5537 181.859C70.5537 181.859 72.9963 181.746 73.901 181.226C73.901 181.226 73.7879 183.412 71.8278 185.666C71.8278 185.666 66.7541 186.82 62.6907 190.943C62.6907 190.943 63.9874 181.98 77.3236 165.523C77.3236 165.523 79.3214 162.869 76.2455 161.022C72.9812 159.891 74.1347 166.254 65.563 169.48C65.563 169.48 68.4052 169.827 69.3701 169.435C69.3701 169.435 61.6051 180.736 60.5648 184.618C60.5648 184.618 57.1874 181.452 50.1612 188.418C50.4175 188.29 55.6419 185.779 56.1998 187.242C57.2401 189.617 46.6556 198.724 31.6609 204.144C31.6609 204.144 29.6782 204.913 27.9819 203.413C22.75 198.075 44.9217 183.465 47.7638 182.425C50.606 181.384 48.1709 179.349 48.1709 179.349C48.1709 179.349 47.5 178.58 45.864 179.371C44.2281 180.155 40.7301 181.173 39.0942 180.065C36.9984 177.992 45.1026 170.754 53.7798 167.407C53.7798 167.407 54.3905 168.455 53.2973 170.513C53.2973 170.513 58.371 166.359 62.834 164.746C62.834 164.746 64.7337 164.294 64.0402 161.7C63.3466 159.107 59.8712 160.057 59.8712 160.057C59.8712 160.057 40.8055 167.973 35.1212 174.856C32.1208 178.738 35.7696 182.198 36.7345 182.809C37.9181 183.623 42.5017 182.794 44.0623 182.183C41.4388 183.518 27.7709 190.619 24.1296 194.992C20.0963 199.832 25.7881 205.983 30.2813 207.521C34.782 209.059 40.2325 207.732 55.8002 196.025C55.8002 196.025 55.5967 198.648 55.7399 199.281C55.8078 200.246 57.6699 202.508 59.4641 201.762C61.2508 201.008 62.2836 192.218 70.9382 188.011C70.9382 188.011 69.1515 193.921 68.8349 195.308C68.5032 196.877 69.2118 199.312 72.1821 199.628C74.5493 200.005 75.7027 190.257 83.513 186.081C83.513 186.081 81.4699 192.074 81.4699 194.321C81.4699 196.575 82.7968 197.404 84.983 197.811C87.1768 198.211 87.0336 188.463 96.1707 184.287C96.1707 184.287 95.1303 188.177 96.6908 190.514C98.2438 192.851 101.878 196.567 104.705 193.771C107.532 190.974 114.822 180.457 123.612 178.316C123.604 178.346 124.238 176.763 122.941 176.793ZM104.524 178.233C104.524 178.233 109.077 173.446 112.884 171.833C112.884 171.833 113.691 171.471 114.113 172.375C115.071 173.355 110.668 178.881 106.574 179.907C105.918 180.072 105.202 179.929 104.697 179.469C103.89 178.746 104.524 178.233 104.524 178.233Z" fill="white"/>
<path d="M83.4753 167.912C83.4753 167.912 85.0283 169.465 86.3551 167.912C87.6819 166.359 89.7551 163.932 89.7551 163.932C89.7551 163.932 90.7955 162.839 89.0088 161.339C87.2221 159.838 85.9706 161.339 85.9706 161.339L83.0305 165.492C83.038 165.492 82.269 167.166 83.4753 167.912Z" fill="white"/>
</g>
<defs>
<clipPath id="clip0_438_3227">
<rect width="145.092" height="226.67" fill="white" transform="translate(0.683838)"/>
</clipPath>
</defs>
</svg>
