<svg width="55" height="54" viewBox="0 0 55 54" fill="none" xmlns="http://www.w3.org/2000/svg">
<path opacity="0.1" d="M53.6143 27C53.6143 41.6987 41.6987 53.6143 27 53.6143C12.3013 53.6143 0.385712 41.6987 0.385712 27C0.385712 12.3013 12.3013 0.385712 27 0.385712C41.6987 0.385712 53.6143 12.3013 53.6143 27ZM1.28022 27C1.28022 41.2046 12.7954 52.7198 27 52.7198C41.2046 52.7198 52.7198 41.2046 52.7198 27C52.7198 12.7954 41.2046 1.28022 27 1.28022C12.7954 1.28022 1.28022 12.7954 1.28022 27Z" fill="#F9FFB7"/>
<path d="M27 1.75336C27 0.785002 27.7859 -0.00592925 28.7522 0.0569102C32.3572 0.291342 35.8848 1.24737 39.1234 2.87482C42.8851 4.76515 46.1526 7.50896 48.665 10.8871C51.1775 14.2652 52.8651 18.184 53.5932 22.3306C54.22 25.9005 54.1206 29.554 53.3079 33.074C53.0901 34.0175 52.1065 34.5426 51.1791 34.264C50.2517 33.9854 49.7326 33.0086 49.9412 32.063C50.6021 29.0688 50.6715 25.9683 50.1393 22.937C49.5058 19.329 48.0373 15.9192 45.8512 12.9798C43.6651 10.0404 40.822 7.65298 37.5488 6.00815C34.7989 4.62628 31.8095 3.80073 28.7518 3.5721C27.7861 3.4999 27 2.72171 27 1.75336Z" fill="#69E375"/>
<circle cx="51" cy="35" r="4" fill="#55C15F"/>
<path d="M21.0285 30.032C21.0285 30.564 20.9398 31.026 20.7625 31.418C20.5852 31.81 20.3332 32.132 20.0065 32.384C19.6892 32.636 19.3065 32.8227 18.8585 32.944C18.4105 33.0653 17.9158 33.126 17.3745 33.126C16.8238 33.126 16.2918 33.0887 15.7785 33.014C15.2745 32.9393 14.8405 32.846 14.4765 32.734C14.4018 32.7153 14.3365 32.6873 14.2805 32.65C14.2338 32.6033 14.2105 32.5427 14.2105 32.468V31.348C14.2105 31.2733 14.2338 31.2127 14.2805 31.166C14.3272 31.1193 14.3878 31.096 14.4625 31.096H14.4905C14.9852 31.1427 15.4752 31.1753 15.9605 31.194C16.4552 31.2127 16.8938 31.222 17.2765 31.222C17.7805 31.222 18.1352 31.124 18.3405 30.928C18.5552 30.7227 18.6625 30.424 18.6625 30.032V29.78C18.6625 29.6213 18.6438 29.472 18.6065 29.332C18.5785 29.1827 18.5225 29.052 18.4385 28.94C18.3545 28.828 18.2378 28.7393 18.0885 28.674C17.9392 28.6087 17.7525 28.576 17.5285 28.576H15.0645C14.9898 28.576 14.9245 28.548 14.8685 28.492C14.8218 28.436 14.7985 28.3707 14.7985 28.296V27.106C14.7985 26.9287 14.8872 26.84 15.0645 26.84H17.4725C17.6965 26.84 17.8832 26.8073 18.0325 26.742C18.1912 26.6673 18.3172 26.574 18.4105 26.462C18.5038 26.35 18.5692 26.224 18.6065 26.084C18.6438 25.9347 18.6625 25.7807 18.6625 25.622V25.426C18.6625 25.1087 18.5645 24.8567 18.3685 24.67C18.1818 24.474 17.8178 24.376 17.2765 24.376C17.0338 24.376 16.8005 24.3807 16.5765 24.39C16.3618 24.3993 16.1425 24.4133 15.9185 24.432C15.7038 24.4413 15.4798 24.4553 15.2465 24.474C15.0225 24.4927 14.7798 24.516 14.5185 24.544H14.4905C14.4158 24.544 14.3552 24.5207 14.3085 24.474C14.2618 24.4273 14.2385 24.3667 14.2385 24.292V23.172C14.2385 23.0973 14.2665 23.0413 14.3225 23.004C14.3785 22.9573 14.4438 22.9247 14.5185 22.906C14.8825 22.794 15.3118 22.696 15.8065 22.612C16.3012 22.5187 16.8238 22.472 17.3745 22.472C17.9438 22.472 18.4525 22.5233 18.9005 22.626C19.3578 22.7287 19.7405 22.8967 20.0485 23.13C20.3658 23.354 20.6085 23.648 20.7765 24.012C20.9445 24.376 21.0285 24.8193 21.0285 25.342V25.538C21.0285 25.9487 20.9118 26.3547 20.6785 26.756C20.4545 27.1573 20.1558 27.4653 19.7825 27.68C20.1745 27.8853 20.4778 28.1747 20.6925 28.548C20.9165 28.912 21.0285 29.3227 21.0285 29.78V30.032ZM30.0519 24.082C30.0519 24.1753 30.0286 24.2733 29.9819 24.376C29.9446 24.4787 29.8933 24.5953 29.8279 24.726L26.1459 32.734C26.0619 32.9113 25.9453 33 25.7959 33H23.8779C23.7099 33 23.6259 32.944 23.6259 32.832C23.6259 32.7853 23.6399 32.734 23.6679 32.678L27.4759 24.684C27.4853 24.6653 27.4899 24.642 27.4899 24.614C27.4899 24.558 27.4573 24.53 27.3919 24.53H23.5139C23.4393 24.53 23.3693 24.5067 23.3039 24.46C23.2479 24.404 23.2199 24.3387 23.2199 24.264V22.864C23.2199 22.7893 23.2479 22.7287 23.3039 22.682C23.3693 22.626 23.4393 22.598 23.5139 22.598H29.5759C29.7066 22.598 29.8186 22.6447 29.9119 22.738C30.0053 22.822 30.0519 22.9293 30.0519 23.06V24.082ZM42.3654 30.676C42.3654 31.4973 42.188 32.104 41.8334 32.496C41.4787 32.888 40.97 33.084 40.3074 33.084C39.6447 33.084 39.1314 32.888 38.7674 32.496C38.4127 32.104 38.2354 31.4973 38.2354 30.676V29.626C38.2354 28.8047 38.4127 28.198 38.7674 27.806C39.1314 27.414 39.6447 27.218 40.3074 27.218C40.97 27.218 41.4787 27.414 41.8334 27.806C42.188 28.198 42.3654 28.8047 42.3654 29.626V30.676ZM40.9234 22.71C40.9234 22.7753 40.9047 22.8313 40.8674 22.878L35.0434 32.706C34.9874 32.8087 34.936 32.8833 34.8894 32.93C34.852 32.9767 34.796 33 34.7214 33H33.2794C33.1767 33 33.1254 32.9487 33.1254 32.846C33.1254 32.8087 33.1394 32.762 33.1674 32.706L38.9914 22.878C39.0567 22.7753 39.1127 22.7053 39.1594 22.668C39.206 22.6213 39.2667 22.598 39.3414 22.598H40.7834C40.8767 22.598 40.9234 22.6353 40.9234 22.71ZM35.8274 25.972C35.8274 26.7933 35.6454 27.4 35.2814 27.792C34.9267 28.184 34.418 28.38 33.7554 28.38C33.0927 28.38 32.5794 28.184 32.2154 27.792C31.8607 27.4 31.6834 26.7933 31.6834 25.972V24.922C31.6834 24.1007 31.8607 23.4987 32.2154 23.116C32.5794 22.724 33.0927 22.528 33.7554 22.528C34.418 22.528 34.9267 22.724 35.2814 23.116C35.6454 23.4987 35.8274 24.1007 35.8274 24.922V25.972ZM40.9654 29.626C40.9654 29.15 40.9047 28.8327 40.7834 28.674C40.6714 28.5153 40.5127 28.436 40.3074 28.436C40.102 28.436 39.9387 28.5153 39.8174 28.674C39.696 28.8327 39.6354 29.15 39.6354 29.626V30.676C39.6354 31.152 39.696 31.4693 39.8174 31.628C39.9387 31.7867 40.102 31.866 40.3074 31.866C40.5127 31.866 40.6714 31.7867 40.7834 31.628C40.9047 31.4693 40.9654 31.152 40.9654 30.676V29.626ZM34.4134 24.922C34.4134 24.446 34.3527 24.1287 34.2314 23.97C34.1194 23.8113 33.9607 23.732 33.7554 23.732C33.55 23.732 33.3867 23.8113 33.2654 23.97C33.144 24.1287 33.0834 24.446 33.0834 24.922V25.972C33.0834 26.448 33.144 26.77 33.2654 26.938C33.3867 27.0967 33.55 27.176 33.7554 27.176C33.9607 27.176 34.1194 27.0967 34.2314 26.938C34.3527 26.77 34.4134 26.448 34.4134 25.972V24.922Z" fill="#69E375"/>
</svg>
