<svg width="26" height="26" viewBox="0 0 26 26" fill="none" xmlns="http://www.w3.org/2000/svg">
<path d="M13 0C10.6542 0 8.73333 1.87281 8.73333 4.16C8.73333 6.44719 10.6542 8.32 13 8.32C15.3458 8.32 17.2667 6.44719 17.2667 4.16C17.2667 1.87281 15.3458 0 13 0ZM13 2.08C14.1917 2.08 15.1333 2.99812 15.1333 4.16C15.1333 5.32187 14.1917 6.24 13 6.24C11.8083 6.24 10.8667 5.32187 10.8667 4.16C10.8667 2.99812 11.8083 2.08 13 2.08ZM11.5333 9.36C9.40417 9.36 7.475 10.6031 6.63333 12.5125L4.76667 16.77L0 17.7125L0.4 19.7275L5.73333 18.6875L6.3 18.59L6.5 18.1025L8.6 13.325C9.10417 12.1753 10.25 11.44 11.5333 11.44H14.4667C15.75 11.44 16.8958 12.1753 17.4 13.325L19.5 18.1025L19.7 18.59L20.2667 18.6875L25.6 19.7275L26 17.7125L21.2333 16.77L19.3667 12.5125C18.5292 10.6031 16.6 9.36 14.4667 9.36H11.5333ZM9.8 14.2025L7.66667 19.045L4.2 20.41C3.07083 20.8487 2.33333 21.9253 2.33333 23.1075C2.33333 24.6959 3.67083 26 5.3 26H20.7C22.3292 26 23.6667 24.6959 23.6667 23.1075C23.6667 21.9253 22.9292 20.8487 21.8 20.41L18.3333 19.045L16.2 14.2025V20.475L16.8667 20.735L21 22.3275C21.325 22.4534 21.5333 22.7703 21.5333 23.1075C21.5333 23.5747 21.1792 23.92 20.7 23.92H16.1333C16.1708 23.7494 16.2 23.5787 16.2 23.4C16.2 21.9659 15.0042 20.8 13.5333 20.8L7.66667 22.88H13.5333C13.825 22.88 14.0667 23.1116 14.0667 23.4C14.0667 23.6884 13.825 23.92 13.5333 23.92H5.3C4.82083 23.92 4.46667 23.5747 4.46667 23.1075C4.46667 22.7703 4.675 22.4534 5 22.3275H5.03333L9.13333 20.735L9.8 20.475V14.2025Z" fill="white"/>
</svg>
