<svg width="24" height="24" viewBox="0 0 24 24" fill="none" xmlns="http://www.w3.org/2000/svg">
<path d="M18.375 24H5.625C2.52338 24 0 21.4763 0 18.3742V10.4853C0 8.74176 0.827578 7.06953 2.21372 6.01211L8.58872 1.14911C10.5973 -0.383036 13.4027 -0.383036 15.4113 1.14911L17.4375 2.69339V1.49674C17.487 0.252681 19.2634 0.253619 19.3125 1.49674V4.58676C19.3125 4.9432 19.1104 5.2688 18.791 5.42703C18.4716 5.5852 18.0902 5.54854 17.8067 5.33256L14.2745 2.64047C12.9352 1.61882 11.0647 1.61882 9.72577 2.64023L3.35077 7.50323C2.42672 8.2081 1.875 9.3229 1.875 10.4853V18.3742C1.875 20.4422 3.55725 22.1247 5.625 22.1247H18.375C20.4427 22.1247 22.125 20.4422 22.125 18.3742V10.4853C22.125 9.30865 21.5795 8.19005 20.6658 7.49301C20.2541 7.17895 20.175 6.59058 20.489 6.17887C20.803 5.76711 21.3913 5.68792 21.8029 6.00198C23.1787 7.05139 24 8.72741 24 10.4853V18.3742C24 21.4763 21.4766 24 18.375 24ZM10.125 10.8262C9.4778 10.8262 8.95312 11.351 8.95312 11.9983C9.01505 13.5533 11.2355 13.5522 11.2969 11.9983C11.2969 11.3509 10.7722 10.8262 10.125 10.8262ZM15.0469 11.9982C14.985 13.5533 12.7645 13.5521 12.7031 11.9982C12.765 10.4431 14.9855 10.4444 15.0469 11.9982ZM11.2969 15.7488C11.235 17.3038 9.01448 17.3027 8.95312 15.7488C9.01505 14.1937 11.2355 14.1949 11.2969 15.7488ZM15.0469 15.7488C14.985 17.3038 12.7645 17.3027 12.7031 15.7488C12.765 14.1937 14.9855 14.1949 15.0469 15.7488Z" fill="white"/>
</svg>
