<svg width="22" height="6" viewBox="0 0 22 6" fill="none" xmlns="http://www.w3.org/2000/svg">
<path fill-rule="evenodd" clip-rule="evenodd" d="M3 4.5C3.82843 4.5 4.5 3.82843 4.5 3C4.5 2.17157 3.82843 1.5 3 1.5C2.17157 1.5 1.5 2.17157 1.5 3C1.5 3.82843 2.17157 4.5 3 4.5ZM3 6C4.65685 6 6 4.65685 6 3C6 1.34315 4.65685 0 3 0C1.34315 0 0 1.34315 0 3C0 4.65685 1.34315 6 3 6ZM11 4.5C11.8284 4.5 12.5 3.82843 12.5 3C12.5 2.17157 11.8284 1.5 11 1.5C10.1716 1.5 9.5 2.17157 9.5 3C9.5 3.82843 10.1716 4.5 11 4.5ZM11 6C12.6569 6 14 4.65685 14 3C14 1.34315 12.6569 0 11 0C9.34315 0 8 1.34315 8 3C8 4.65685 9.34315 6 11 6ZM20.5 3C20.5 3.82843 19.8284 4.5 19 4.5C18.1716 4.5 17.5 3.82843 17.5 3C17.5 2.17157 18.1716 1.5 19 1.5C19.8284 1.5 20.5 2.17157 20.5 3ZM22 3C22 4.65685 20.6569 6 19 6C17.3431 6 16 4.65685 16 3C16 1.34315 17.3431 0 19 0C20.6569 0 22 1.34315 22 3Z" fill="white"/>
</svg>
